<?xml version="1.0" encoding="utf-8"?>
<!-- Generator: Adobe Illustrator 15.0.0, SVG Export Plug-In . SVG Version: 6.00 Build 0)  -->
<!DOCTYPE svg PUBLIC "-//W3C//DTD SVG 1.1//EN" "http://www.w3.org/Graphics/SVG/1.1/DTD/svg11.dtd">
<svg version="1.1" id="Layer_1" xmlns="http://www.w3.org/2000/svg" xmlns:xlink="http://www.w3.org/1999/xlink" x="0px" y="0px"
	 width="337.33px" height="337.33px" viewBox="0 0 337.33 337.33" enable-background="new 0 0 337.33 337.33" xml:space="preserve">
<g id="Layer_2">
	<path fill="#0868AC" d="M24.099,82.675c-29.613,42.565-25.927,97.939-3.305,143.166c0.538,1.082,1.102,2.15,1.657,3.217
		c0.355,0.677,0.688,1.369,1.058,2.037c0.208,0.397,0.442,0.791,0.659,1.172c0.385,0.722,0.781,1.404,1.18,2.109
		c0.703,1.238,1.422,2.471,2.16,3.702c0.408,0.676,0.81,1.353,1.232,2.028c0.815,1.318,1.651,2.619,2.507,3.922
		c0.355,0.555,0.703,1.109,1.067,1.646c1.18,1.76,2.385,3.516,3.629,5.239c0.031,0.045,0.066,0.095,0.104,0.14
		c0.196,0.273,0.413,0.545,0.613,0.821c1.075,1.485,2.186,2.949,3.308,4.399c0.413,0.527,0.829,1.059,1.246,1.586
		c1.001,1.26,2.021,2.509,3.057,3.758c0.387,0.465,0.777,0.938,1.167,1.395c1.391,1.639,2.811,3.27,4.259,4.864
		c0.026,0.027,0.061,0.063,0.087,0.091c0.061,0.068,0.113,0.11,0.165,0.18c1.414,1.545,2.862,3.055,4.328,4.563
		c0.455,0.47,0.919,0.937,1.388,1.397c1.136,1.146,2.29,2.271,3.456,3.391c0.474,0.451,0.942,0.913,1.414,1.344
		c1.558,1.467,3.131,2.906,4.736,4.313c0.028,0.023,0.049,0.045,0.075,0.06c0.272,0.242,0.555,0.472,0.824,0.704
		c1.414,1.225,2.854,2.439,4.302,3.633c0.59,0.479,1.188,0.947,1.782,1.422c1.185,0.947,2.382,1.885,3.587,2.805
		c0.637,0.484,1.275,0.972,1.917,1.457c1.331,0.979,2.671,1.943,4.025,2.887c0.494,0.357,0.971,0.704,1.466,1.041
		c0.137,0.098,0.264,0.193,0.402,0.288c1.284,0.885,2.597,1.733,3.908,2.585c0.564,0.375,1.123,0.764,1.692,1.128
		c2.012,1.272,4.054,2.532,6.118,3.747c0.561,0.322,1.128,0.635,1.692,0.954c1.518,0.878,3.044,1.733,4.592,2.577
		c0.838,0.451,1.697,0.875,2.542,1.309c1.093,0.572,2.177,1.15,3.288,1.707c0.251,0.125,0.513,0.246,0.76,0.368
		c0.446,0.215,0.897,0.423,1.344,0.647c1.721,0.822,3.456,1.631,5.209,2.412c0.373,0.166,0.732,0.329,1.102,0.492
		c2.007,0.878,4.032,1.721,6.076,2.525c0.491,0.201,0.985,0.389,1.479,0.583c1.891,0.729,3.808,1.446,5.733,2.122
		c0.243,0.088,0.477,0.168,0.72,0.25c2.111,0.74,4.245,1.424,6.393,2.094c0.512,0.148,1.027,0.313,1.544,0.461
		c2.186,0.659,4.346,1.447,6.601,1.863c143.215,26.114,184.814-86.063,184.814-86.063c-34.938,45.519-96.955,57.526-155.715,44.158
		c-2.229-0.504-4.386-1.197-6.56-1.839c-0.552-0.163-1.093-0.33-1.636-0.497c-2.12-0.647-4.224-1.332-6.315-2.054
		c-0.286-0.104-0.576-0.209-0.867-0.313c-1.874-0.659-3.725-1.353-5.569-2.063c-0.521-0.209-1.041-0.405-1.561-0.613
		c-2.021-0.799-4.028-1.631-6.011-2.498c-0.408-0.174-0.798-0.357-1.201-0.531c-1.705-0.773-3.391-1.551-5.071-2.359
		c-0.485-0.231-0.971-0.461-1.466-0.703c-1.318-0.643-2.621-1.325-3.922-1.995c-0.871-0.458-1.755-0.892-2.618-1.371
		c-1.589-0.851-3.149-1.734-4.701-2.638c-0.526-0.295-1.059-0.578-1.587-0.885c-2.064-1.214-4.104-2.474-6.122-3.75
		c-0.557-0.354-1.102-0.736-1.652-1.101c-1.464-0.942-2.921-1.904-4.356-2.896c-0.475-0.319-0.935-0.666-1.403-0.985
		c-1.386-0.979-2.757-1.972-4.119-2.978c-0.617-0.459-1.225-0.924-1.825-1.382c-1.248-0.954-2.488-1.915-3.716-2.903
		c-0.555-0.44-1.11-0.885-1.657-1.328c-1.562-1.284-3.105-2.574-4.628-3.899c-0.16-0.14-0.333-0.278-0.507-0.429
		c-1.648-1.445-3.267-2.932-4.866-4.422c-0.465-0.444-0.916-0.875-1.37-1.318c-1.185-1.128-2.351-2.264-3.496-3.43
		c-0.46-0.457-0.919-0.908-1.371-1.366c-1.457-1.491-2.889-3.004-4.29-4.538c-0.069-0.076-0.143-0.146-0.212-0.227
		c-1.483-1.619-2.932-3.277-4.351-4.951c-0.385-0.461-0.758-0.9-1.14-1.353c-1.058-1.276-2.107-2.567-3.131-3.872
		c-0.385-0.465-0.769-0.947-1.148-1.43c-1.234-1.6-2.438-3.195-3.617-4.814C32.858,165.142,21.137,103.763,47.212,53.358"/>
	<path fill="#0868AC" d="M116.024,46.816c-21.416,30.819-20.253,72.073-3.547,104.667c2.802,5.465,5.95,10.765,9.472,15.813
		c3.209,4.598,6.766,10.07,11.025,13.766c1.544,1.699,3.157,3.358,4.805,4.988c0.417,0.424,0.841,0.834,1.267,1.25
		c1.6,1.551,3.227,3.077,4.909,4.56c0.069,0.056,0.13,0.125,0.2,0.174c0.017,0.021,0.035,0.026,0.047,0.048
		c1.86,1.631,3.782,3.199,5.733,4.743c0.434,0.33,0.864,0.677,1.301,1.017c1.957,1.5,3.952,2.975,5.997,4.379
		c0.063,0.041,0.114,0.088,0.175,0.133c0.902,0.623,1.821,1.203,2.736,1.804c0.439,0.285,0.855,0.59,1.297,0.856
		c1.461,0.938,2.94,1.85,4.445,2.725c0.213,0.132,0.421,0.242,0.629,0.363c1.294,0.746,2.613,1.481,3.932,2.196
		c0.457,0.257,0.926,0.485,1.394,0.729c0.909,0.476,1.821,0.961,2.748,1.423c0.139,0.065,0.284,0.128,0.418,0.187
		c1.887,0.932,3.787,1.825,5.733,2.672c0.412,0.185,0.844,0.348,1.267,0.521c1.555,0.659,3.123,1.305,4.698,1.908
		c0.668,0.253,1.347,0.496,2.013,0.738c1.435,0.531,2.869,1.018,4.315,1.502c0.656,0.209,1.297,0.425,1.953,0.625
		c2.058,0.639,4.094,1.447,6.242,1.805c110.576,18.318,136.103-66.816,136.103-66.816c-23.015,33.142-67.578,48.955-115.132,36.61
		c-2.11-0.556-4.19-1.159-6.26-1.812c-0.635-0.19-1.256-0.398-1.885-0.606c-1.471-0.476-2.932-0.981-4.381-1.51
		c-0.664-0.242-1.326-0.485-1.979-0.735c-1.586-0.609-3.158-1.242-4.711-1.9c-0.429-0.182-0.854-0.348-1.271-0.539
		c-1.953-0.85-3.875-1.744-5.77-2.68c-0.976-0.478-1.933-0.979-2.894-1.475c-0.558-0.286-1.115-0.572-1.67-0.859
		c-1.229-0.667-2.455-1.361-3.66-2.063c-0.287-0.165-0.586-0.321-0.877-0.495c-1.496-0.876-2.972-1.778-4.433-2.706
		c-0.45-0.286-0.885-0.6-1.336-0.895c-0.965-0.623-1.926-1.258-2.873-1.898c-2.035-1.405-4.018-2.88-5.975-4.371
		c-0.451-0.355-0.9-0.703-1.346-1.059c-20.814-16.437-37.313-38.896-45.158-64.361c-8.221-26.412-6.448-56.06,7.794-80.12"/>
	<path fill="#0868AC" d="M193.338,20.024c-12.625,18.58-13.863,41.654-5.106,62.175c9.239,21.78,28.17,38.868,50.264,46.968
		c0.914,0.342,1.822,0.643,2.746,0.954c0.401,0.123,0.805,0.263,1.211,0.382c1.301,0.409,2.592,0.885,3.938,1.139
		c61.057,11.797,77.615-31.332,82.023-37.68c-14.506,20.887-38.883,25.9-68.797,18.643c-2.359-0.576-4.959-1.43-7.238-2.236
		c-2.922-1.041-5.795-2.229-8.592-3.57c-5.314-2.552-10.373-5.647-15.07-9.193C201.95,77.295,185.325,38.552,202.79,7"/>
</g>
</svg>
