<?xml version="1.0" encoding="utf-8"?>
<!-- Generator: Adobe Illustrator 15.0.0, SVG Export Plug-In . SVG Version: 6.00 Build 0)  -->
<!DOCTYPE svg PUBLIC "-//W3C//DTD SVG 1.1//EN" "http://www.w3.org/Graphics/SVG/1.1/DTD/svg11.dtd">
<svg version="1.1" id="Layer_1" xmlns="http://www.w3.org/2000/svg" xmlns:xlink="http://www.w3.org/1999/xlink" x="0px" y="0px"
	 width="337.33px" height="337.33px" viewBox="0 0 337.33 337.33" enable-background="new 0 0 337.33 337.33" xml:space="preserve">
<g id="Layer_3">
	<g transform="translate(0.738281, 121.593)">
		<path fill="#00618A" d="M0.893,120.475h11.053V76.829l17.111,38.049c2.019,4.605,4.782,6.234,10.202,6.234
			c5.42,0,8.077-1.629,10.097-6.234l17.11-38.049v43.646H77.52V76.899c0-4.25-1.701-6.306-5.208-7.367
			c-8.396-2.623-14.029-0.355-16.58,5.313L38.94,112.397L22.68,74.844c-2.444-5.668-8.184-7.937-16.579-5.313
			c-3.508,1.063-5.208,3.117-5.208,7.367V120.475z"/>
	</g>
	<g transform="translate(100.444, 142.416)">
		<path fill="#00618A" d="M-12.996,64.123h11.05V88.17c-0.104,1.308,0.419,4.373,6.474,4.47c3.089,0.047,23.841,0,24.035,0V64.009
			h11.075c0.051,0-0.011,39.043-0.01,39.209c0.062,9.629-11.948,11.721-17.483,11.883h-34.9v-7.437c0.061,0,34.874,0.009,34.962,0
			c7.113-0.752,6.273-4.289,6.272-5.479v-2.898H4.986c-10.929-0.102-17.89-4.871-17.976-10.358
			C-12.998,88.421-12.755,64.365-12.996,64.123z"/>
	</g>
	<g transform="translate(171.496, 124.557)">
		<path fill="#E48E00" d="M-22.896,117.51H8.88c3.721,0,7.334-0.778,10.203-2.127c4.782-2.194,7.12-5.172,7.12-9.067V98.24
			c0-3.189-2.656-6.166-7.864-8.148c-2.764-1.064-6.164-1.631-9.459-1.631H-4.512c-4.463,0-6.588-1.346-7.12-4.322
			c-0.106-0.354-0.106-0.639-0.106-0.99v-5.03c0-0.283,0-0.568,0.106-0.923c0.531-2.266,1.701-2.903,5.632-3.26
			c0.319,0,0.744-0.069,1.063-0.069h31.566v-7.369H-4.405c-4.464,0-6.802,0.285-8.927,0.922c-6.589,2.056-9.458,5.313-9.458,10.981
			v6.447c0,4.961,5.633,9.211,15.091,10.203c1.064,0.07,2.126,0.141,3.188,0.141H6.968c0.426,0,0.852,0,1.169,0.072
			c3.509,0.283,4.995,0.92,6.06,2.195c0.637,0.639,0.85,1.277,0.85,1.984v6.447c0,0.778-0.531,1.771-1.594,2.621
			c-0.956,0.852-2.551,1.418-4.676,1.561c-0.426,0-0.744,0.07-1.17,0.07h-30.501L-22.896,117.51L-22.896,117.51z"/>
	</g>
	<g transform="translate(308.656, 124.557)">
		<path fill="#E48E00" d="M-42.006,104.687c0,7.58,5.633,11.832,17.004,12.682c1.063,0.072,2.127,0.143,3.188,0.143H6.989v-7.369
			h-29.015c-6.481,0-8.927-1.631-8.927-5.526V66.497h-11.053V104.687L-42.006,104.687z"/>
	</g>
	<g transform="translate(236.74, 124.666)">
		<path fill="#E48E00" d="M-31.986,104.962V78.693c0-6.674,4.688-10.723,13.951-12c0.958-0.143,2.023-0.213,2.982-0.213H5.926
			c1.064,0,2.023,0.07,3.089,0.213c9.267,1.277,13.951,5.326,13.951,12v26.269c0,5.415-1.989,8.313-6.576,10.2l10.888,9.828H14.444
			l-8.808-7.951l-8.868,0.563h-11.82c-2.023,0-4.152-0.285-6.496-0.924C-28.578,114.761-31.986,111.07-31.986,104.962z
			 M-20.054,104.324c0,0.354,0.104,0.711,0.211,1.137c0.64,3.053,3.516,4.758,7.881,4.758h10.041l-9.224-8.328H1.69l8.043,7.264
			c1.482-0.791,2.459-2,2.799-3.551c0.106-0.355,0.106-0.711,0.106-1.064V79.334c0-0.284,0-0.639-0.106-0.995
			c-0.64-2.841-3.515-4.472-7.772-4.472h-16.722c-4.898,0-8.092,2.129-8.092,5.467V104.324z"/>
	</g>
	<g transform="translate(241.59, -4.64258)">
		<path fill="#00618A" d="M83.779,183.472c-6.794-0.185-11.983,0.446-16.422,2.317c-1.26,0.531-3.271,0.547-3.478,2.127
			c0.693,0.726,0.802,1.812,1.353,2.703c1.06,1.715,2.848,4.013,4.443,5.218c1.743,1.315,3.541,2.725,5.41,3.864
			c3.324,2.025,7.037,3.187,10.238,5.215c1.887,1.197,3.762,2.705,5.602,4.058c0.911,0.668,1.522,1.707,2.705,2.125
			c0-0.063,0-0.127,0-0.192c-0.622-0.791-0.78-1.877-1.353-2.705c-0.836-0.836-1.674-1.675-2.511-2.513
			c-2.456-3.26-5.573-6.121-8.888-8.498c-2.643-1.897-8.557-4.461-9.659-7.534c-0.064-0.066-0.129-0.129-0.192-0.193
			c1.873-0.211,4.065-0.891,5.796-1.354c2.904-0.776,5.501-0.575,8.5-1.352c1.353-0.388,2.705-0.773,4.057-1.16
			c0-0.258,0-0.515,0-0.772c-1.516-1.556-2.597-3.613-4.25-5.021c-4.326-3.684-9.048-7.365-13.908-10.434
			c-2.697-1.701-6.029-2.808-8.888-4.25c-0.962-0.484-2.649-0.736-3.284-1.545c-1.502-1.914-2.32-4.341-3.478-6.569
			c-2.427-4.671-4.808-9.771-6.955-14.683c-1.466-3.352-2.423-6.654-4.25-9.66c-8.772-14.422-18.215-23.127-32.842-31.685
			c-3.113-1.82-6.86-2.538-10.82-3.477c-2.124-0.128-4.25-0.258-6.375-0.387c-1.298-0.542-2.646-2.129-3.862-2.898
			c-4.847-3.061-17.275-9.72-20.865-0.966c-2.267,5.525,3.388,10.917,5.408,13.717c1.42,1.964,3.237,4.167,4.252,6.375
			c0.666,1.451,0.78,2.908,1.353,4.443c1.403,3.785,2.626,7.901,4.442,11.398c0.918,1.77,1.931,3.633,3.093,5.216
			c0.711,0.972,1.931,1.399,2.122,2.898c-1.191,1.669-1.26,4.26-1.93,6.375c-3.021,9.521-1.882,21.354,2.51,28.399
			c1.349,2.164,4.522,6.803,8.888,5.023c3.817-1.555,2.966-6.375,4.058-10.627c0.246-0.963,0.096-1.672,0.579-2.316
			c0,0.063,0,0.127,0,0.193c1.16,2.316,2.318,4.635,3.479,6.953c2.572,4.145,7.141,8.477,11.011,11.4
			c2.008,1.516,3.588,4.137,6.183,5.021c0-0.063,0-0.127,0-0.193c-0.064,0-0.129,0-0.193,0c-0.502-0.782-1.289-1.106-1.932-1.737
			c-1.513-1.482-3.193-3.324-4.443-5.021c-3.521-4.781-6.631-10.012-9.465-15.457c-1.354-2.6-2.53-5.469-3.672-8.113
			c-0.439-1.021-0.436-2.563-1.353-3.092c-1.25,1.938-3.091,3.506-4.058,5.795c-1.545,3.66-1.744,8.123-2.317,12.752
			c-0.339,0.121-0.188,0.037-0.388,0.191c-2.69-0.648-3.637-3.418-4.637-5.795c-2.529-6.01-2.998-15.686-0.772-22.604
			c0.575-1.789,3.18-7.427,2.125-9.08c-0.502-1.65-2.162-2.604-3.091-3.865c-1.148-1.559-2.297-3.61-3.092-5.41
			c-2.069-4.686-3.037-9.946-5.217-14.682c-1.041-2.266-2.803-4.557-4.248-6.569c-1.604-2.23-3.396-3.872-4.639-6.569
			c-0.439-0.958-1.04-2.492-0.387-3.477c0.209-0.665,0.503-0.942,1.16-1.159c1.121-0.864,4.24,0.287,5.408,0.772
			c3.098,1.287,5.686,2.512,8.31,4.25c1.259,0.834,2.532,2.451,4.056,2.898c0.579,0,1.159,0,1.738,0
			c2.72,0.625,5.767,0.194,8.308,0.966c4.491,1.365,8.517,3.488,12.171,5.796c11.137,7.031,20.239,17.04,26.469,28.979
			c1.002,1.922,1.436,3.757,2.317,5.796c1.78,4.11,4.022,8.343,5.794,12.362c1.77,4.013,3.491,8.062,5.989,11.398
			c1.315,1.756,6.39,2.697,8.694,3.672c1.615,0.684,4.265,1.395,5.795,2.316c2.926,1.766,5.759,3.865,8.503,5.797
			C79.355,179.608,83.569,181.726,83.779,183.472z"/>
	</g>
	<g transform="translate(272.504, 24.8027)">
		<path fill="#00618A" d="M-33.49,80.42c-1.416-0.026-2.419,0.154-3.479,0.386c0,0.065,0,0.129,0,0.192c0.064,0,0.13,0,0.193,0
			c0.676,1.39,1.869,2.283,2.705,3.479c0.644,1.354,1.286,2.705,1.933,4.057c0.063-0.063,0.128-0.129,0.192-0.192
			c1.195-0.843,1.743-2.192,1.737-4.25c-0.479-0.505-0.55-1.138-0.966-1.739C-31.727,81.55-32.795,81.094-33.49,80.42z"/>
	</g>
	<g transform="translate(371.609, 165.56)">
		<path fill="#E48E00" d="M-50.775,68.93c0,4.864,3.845,8.145,8.146,8.145c4.302,0,8.146-3.279,8.146-8.145
			c0-4.867-3.845-8.146-8.146-8.146C-46.93,60.785-50.775,64.061-50.775,68.93z M-36.309,68.93c0,3.69-2.823,6.45-6.32,6.45
			c-3.539,0-6.32-2.76-6.32-6.45c0-3.693,2.781-6.453,6.32-6.453C-39.132,62.477-36.309,65.235-36.309,68.93z M-40.435,73.578h1.824
			l-2.672-4.084c1.434-0.151,2.52-0.849,2.52-2.541c0-1.892-1.193-2.672-3.496-2.672h-3.628v9.297h1.564v-4.021h1.454
			L-40.435,73.578z M-44.323,68.255v-2.672h1.802c0.936,0,2.063,0.174,2.063,1.261c0,1.303-1.021,1.411-2.194,1.411H-44.323z"/>
	</g>
</g>
</svg>
